<?xml version="1.0" standalone="no"?>
<!DOCTYPE svg PUBLIC "-//W3C//DTD SVG 20010904//EN"
 "http://www.w3.org/TR/2001/REC-SVG-20010904/DTD/svg10.dtd">
<svg version="1.0" xmlns="http://www.w3.org/2000/svg"
 width="610.000000pt" height="610.000000pt" viewBox="0 0 610.000000 610.000000"
 preserveAspectRatio="xMidYMid meet">
<metadata>
Created by potrace 1.11, written by Peter Selinger 2001-2013
</metadata>
<g transform="translate(0.000000,610.000000) scale(0.100000,-0.100000)"
fill="#000000" stroke="none">
<path d="M0 4655 l0 -395 35 -17 c19 -9 35 -21 35 -25 0 -5 4 -7 9 -3 5 3 12
1 15 -4 3 -5 29 -21 58 -36 29 -15 55 -31 58 -34 3 -4 20 -13 37 -20 18 -7 30
-18 26 -24 -3 -5 -1 -7 4 -4 6 4 26 -3 44 -16 19 -12 59 -35 89 -51 30 -16 57
-33 60 -36 3 -4 15 -10 27 -14 13 -4 23 -12 23 -17 0 -5 7 -9 15 -9 8 0 15 -5
15 -11 0 -5 4 -8 9 -4 5 3 15 -1 23 -8 7 -7 28 -19 46 -26 17 -7 32 -17 32
-22 0 -5 7 -9 15 -9 8 0 15 -5 15 -12 0 -6 3 -8 6 -5 4 4 19 -1 33 -11 42 -28
64 -40 98 -58 18 -9 33 -21 33 -26 0 -5 4 -7 9 -3 5 3 16 -2 24 -10 9 -8 20
-15 26 -15 6 0 11 -5 11 -11 0 -5 4 -8 9 -4 5 3 16 -2 24 -10 9 -8 20 -15 26
-15 6 0 11 -5 11 -10 0 -6 3 -9 8 -8 12 3 62 -24 62 -34 0 -4 3 -7 8 -6 12 4
92 -42 92 -53 0 -6 4 -8 9 -5 5 3 19 -2 32 -12 13 -11 45 -29 72 -42 26 -13
47 -27 47 -32 0 -4 3 -7 8 -6 9 3 86 -43 90 -54 2 -5 8 -6 13 -2 5 3 9 0 9 -7
0 -7 3 -9 7 -6 3 4 12 2 20 -4 19 -16 75 -48 96 -55 9 -4 17 -10 17 -15 0 -5
7 -9 15 -9 8 0 15 -5 15 -11 0 -5 4 -8 10 -4 5 3 18 -3 30 -15 11 -11 20 -18
20 -15 0 5 122 -64 130 -74 3 -3 12 -7 20 -9 8 -2 22 -10 31 -18 8 -8 21 -14
27 -14 7 0 12 -4 12 -8 0 -5 16 -14 35 -22 19 -8 35 -17 35 -22 0 -4 7 -8 15
-8 8 0 24 -9 35 -20 11 -11 22 -20 25 -20 3 0 10 0 15 0 6 0 10 -8 10 -18 0
-17 -44 -48 -62 -44 -5 1 -8 -2 -8 -6 0 -10 -50 -37 -62 -34 -5 1 -8 -2 -8 -8
0 -5 -7 -10 -15 -10 -8 0 -15 -4 -15 -10 0 -5 -11 -12 -25 -16 -14 -3 -25 -9
-25 -13 0 -9 -72 -45 -82 -43 -5 1 -8 -2 -8 -6 0 -10 -50 -37 -62 -34 -5 1 -8
-2 -8 -8 0 -5 -7 -10 -15 -10 -8 0 -15 -4 -15 -9 0 -8 -32 -24 -51 -26 -3 0
-13 -8 -23 -17 -10 -10 -23 -18 -30 -18 -8 0 -19 -7 -26 -15 -7 -8 -16 -13
-20 -10 -5 3 -10 1 -12 -3 -4 -11 -143 -92 -157 -92 -6 0 -11 -3 -11 -8 0 -9
-65 -45 -76 -42 -4 1 -10 -2 -13 -8 -6 -9 -134 -86 -186 -112 -16 -8 -36 -20
-43 -27 -7 -7 -18 -13 -23 -13 -6 0 -17 -7 -26 -15 -8 -8 -19 -13 -24 -10 -5
4 -9 2 -9 -2 0 -12 -56 -44 -64 -36 -3 3 -6 2 -6 -4 0 -5 -17 -18 -37 -29 -21
-10 -40 -21 -43 -24 -5 -5 -41 -26 -100 -57 -19 -10 -37 -21 -40 -25 -3 -3
-12 -8 -19 -10 -8 -2 -23 -11 -33 -21 -10 -10 -23 -15 -28 -12 -6 4 -10 2 -10
-2 0 -9 -189 -120 -196 -115 -2 1 -13 -7 -24 -18 -11 -11 -27 -20 -35 -20 -8
0 -15 -4 -15 -9 0 -5 -10 -11 -22 -15 -32 -8 -32 -8 -43 -21 -5 -7 -37 -27
-70 -45 -97 -53 -99 -54 -123 -71 l-22 -16 2 -391 3 -391 130 76 c72 41 186
108 255 148 346 199 908 525 1010 585 63 37 219 127 345 200 127 73 282 164
345 200 63 37 135 79 160 92 25 14 123 71 218 127 96 55 175 101 178 101 2 0
4 -344 4 -765 0 -421 2 -765 4 -765 2 0 55 30 117 66 151 88 258 151 529 307
124 71 277 160 340 197 182 107 549 320 598 347 39 22 179 103 557 323 213
124 595 345 942 546 199 115 363 211 363 214 0 4 -388 231 -669 391 -25 15
-242 140 -481 279 -589 342 -1247 723 -1290 748 -19 11 -253 146 -519 301
-266 154 -486 281 -488 281 -2 0 -3 -344 -3 -765 0 -424 -4 -765 -9 -765 -4 0
-20 9 -34 20 -14 11 -28 20 -31 20 -3 0 -29 14 -58 32 -50 29 -129 75 -208
120 -37 21 -434 252 -1315 763 -291 169 -550 319 -575 333 -25 14 -74 42 -109
64 -34 21 -64 38 -66 38 -2 0 -50 27 -107 61 -56 33 -111 65 -120 70 -17 9
-18 -11 -18 -386z"/>
</g>
</svg>
